<svg xmlns="http://www.w3.org/2000/svg" xmlns:xlink="http://www.w3.org/1999/xlink" width="860pt" height="974pt" viewBox="0 0 859.92 973.62"><g id="graph0" class="graph" transform="scale(1 1) rotate(0) translate(4 969.619)"><title>G</title><polygon fill="#fff" stroke="none" points="-4 4 -4 -969.619 855.918 -969.619 855.918 4 -4 4"/><g id="node1" class="node"><title>fastai_data</title><ellipse cx="627.013" cy="-681.227" fill="#af1313" stroke="#000" rx="36.494" ry="18"/><text x="627.013" y="-678.727" fill="#fff" font-family="Helvetica,sans-Serif" font-size="10" text-anchor="middle">fastai.data</text></g><g id="node2" class="node"><title>fastai_basic_train</title><ellipse cx="276.013" cy="-527.588" fill="#af1313" stroke="#000" rx="45.011" ry="21.429"/><text x="276.013" y="-530.588" fill="#fff" font-family="Helvetica,sans-Serif" font-size="10" text-anchor="middle">fastai.</text><text x="276.013" y="-519.588" fill="#fff" font-family="Helvetica,sans-Serif" font-size="10" text-anchor="middle">basic_train</text></g><g id="edge1" class="edge"><title>fastai_data-&gt;fastai_basic_train</title><path fill="none" stroke="#000" d="M596.019,-671.43C563.594,-661.873 511.463,-645.504 468.013,-627.227 412.444,-603.853 350.898,-570.905 312.829,-549.645"/><polygon fill="#000" stroke="#000" points="314.107 -546.349 303.674 -544.505 310.68 -552.453 314.107 -546.349"/></g><g id="node7" class="node"><title>fastai_callback</title><ellipse cx="514.013" cy="-606.014" fill="#b80909" stroke="#000" rx="37.453" ry="21.429"/><text x="514.013" y="-609.014" fill="#fff" font-family="Helvetica,sans-Serif" font-size="10" text-anchor="middle">fastai.</text><text x="514.013" y="-598.014" fill="#fff" font-family="Helvetica,sans-Serif" font-size="10" text-anchor="middle">callback</text></g><g id="edge7" class="edge"><title>fastai_data-&gt;fastai_callback</title><path fill="none" stroke="#000" d="M605.759,-666.457C589.015,-655.609 565.397,-640.306 546.317,-627.944"/><polygon fill="#000" stroke="#000" points="548.206 -624.998 537.911 -622.498 544.4 -630.872 548.206 -624.998"/></g><g id="node10" class="node"><title>fastai_everything</title><ellipse cx="485.013" cy="-21.213" fill="#6b2e2e" stroke="#000" rx="42.353" ry="21.429"/><text x="485.013" y="-24.213" fill="#fff" font-family="Helvetica,sans-Serif" font-size="10" text-anchor="middle">fastai.</text><text x="485.013" y="-13.213" fill="#fff" font-family="Helvetica,sans-Serif" font-size="10" text-anchor="middle">everything</text></g><g id="edge21" class="edge"><title>fastai_data-&gt;fastai_everything</title><path fill="none" stroke="#000" d="M843.013,-150.426C797.894,-25.5548 650.193,-183.398 549.013,-97.4264"/><path fill="none" stroke="#000" d="M653.013,-605.014C660.258,-580.308 661.275,-573.9 667.013,-548.801 694.316,-429.367 666.247,-383.476 734.013,-281.409 744.439,-265.707 849.418,-169.153 843.013,-151.426"/></g><g id="node16" class="node"><title>fastai_callbacks_lr_finder</title><ellipse cx="620.013" cy="-441.383" fill="#933" stroke="#000" rx="43.267" ry="28.983"/><text x="620.013" y="-449.883" fill="#fff" font-family="Helvetica,sans-Serif" font-size="10" text-anchor="middle">fastai.</text><text x="620.013" y="-438.883" fill="#fff" font-family="Helvetica,sans-Serif" font-size="10" text-anchor="middle">callbacks.</text><text x="620.013" y="-427.883" fill="#fff" font-family="Helvetica,sans-Serif" font-size="10" text-anchor="middle">lr_finder</text></g><g id="edge52" class="edge"><title>fastai_data-&gt;fastai_callbacks_lr_finder</title><path fill="none" stroke="#000" d="M653.013,-605.014C662.572,-572.42 662.211,-561.286 653.013,-528.588"/><path fill="none" stroke="#000" d="M633.654,-663.245C639.266,-648.519 647.282,-626.559 653.013,-607.014"/></g><g id="edge24" class="edge"><title>fastai_basic_train-&gt;fastai_everything</title><path fill="none" stroke="#000" d="M255.135,-508.631C222.981,-478.856 165.013,-415.827 165.013,-348.401 165.013,-348.401 165.013,-348.401 165.013,-281.409 165.013,-223.639 144.765,-205.532 165.013,-151.426"/></g><g id="node13" class="node"><title>fastai_train</title><ellipse cx="485.013" cy="-96.426" fill="#913030" stroke="#000" rx="36.494" ry="18"/><text x="485.013" y="-93.926" fill="#fff" font-family="Helvetica,sans-Serif" font-size="10" text-anchor="middle">fastai.train</text></g><g id="edge45" class="edge"><title>fastai_basic_train-&gt;fastai_train</title><path fill="none" stroke="#000" d="M276.517,-506.158C276.817,-489.099 276.975,-464.144 276.013,-442.383"/></g><g id="node15" class="node"><title>fastai_callbacks_fp16</title><ellipse cx="374.013" cy="-347.401" fill="#9b2626" stroke="#000" rx="43.267" ry="28.983"/><text x="374.013" y="-355.901" fill="#fff" font-family="Helvetica,sans-Serif" font-size="10" text-anchor="middle">fastai.</text><text x="374.013" y="-344.901" fill="#fff" font-family="Helvetica,sans-Serif" font-size="10" text-anchor="middle">callbacks.</text><text x="374.013" y="-333.901" fill="#fff" font-family="Helvetica,sans-Serif" font-size="10" text-anchor="middle">fp16</text></g><g id="edge47" class="edge"><title>fastai_basic_train-&gt;fastai_callbacks_fp16</title><path fill="none" stroke="#000" d="M309.384,-513.197C336.541,-499.855 370.746,-476.427 373.013,-442.383"/></g><g id="node17" class="node"><title>fastai_callbacks_one_cycle</title><ellipse cx="478.013" cy="-347.401" fill="#a83838" stroke="#000" rx="43.267" ry="28.983"/><text x="478.013" y="-355.901" fill="#fff" font-family="Helvetica,sans-Serif" font-size="10" text-anchor="middle">fastai.</text><text x="478.013" y="-344.901" fill="#fff" font-family="Helvetica,sans-Serif" font-size="10" text-anchor="middle">callbacks.</text><text x="478.013" y="-333.901" fill="#fff" font-family="Helvetica,sans-Serif" font-size="10" text-anchor="middle">one_cycle</text></g><g id="edge58" class="edge"><title>fastai_basic_train-&gt;fastai_callbacks_one_cycle</title><path fill="none" stroke="#000" d="M313.079,-515.259C345.651,-503.075 390.898,-480.179 411.013,-442.383"/><path fill="none" stroke="#000" d="M411.013,-440.383C422.18,-419.4 437.65,-397.824 450.91,-380.846"/><polygon fill="#000" stroke="#000" points="453.739 -382.912 457.215 -372.904 448.256 -378.56 453.739 -382.912"/></g><g id="node3" class="node"><title>fastai_imports_torch</title><ellipse cx="331.013" cy="-936.628" fill="#f91010" stroke="#000" rx="36.541" ry="28.983"/><text x="331.013" y="-945.128" fill="#fff" font-family="Helvetica,sans-Serif" font-size="10" text-anchor="middle">fastai.</text><text x="331.013" y="-934.128" fill="#fff" font-family="Helvetica,sans-Serif" font-size="10" text-anchor="middle">imports.</text><text x="331.013" y="-923.128" fill="#fff" font-family="Helvetica,sans-Serif" font-size="10" text-anchor="middle">torch</text></g><g id="edge16" class="edge"><title>fastai_imports_torch-&gt;fastai_data</title><path fill="none" stroke="#000" d="M365.093,-925.666C394.004,-915.803 435.11,-898.285 463.013,-871.637 504.778,-831.75 482.694,-796.739 525.013,-757.441"/></g><g id="edge2" class="edge"><title>fastai_imports_torch-&gt;fastai_basic_train</title><path fill="none" stroke="#000" d="M9.01307,-755.441C3.96296,-744.193 18.419,-742.971 28.0131,-735.227 113.994,-665.828 171.946,-693.262 241.013,-607.014"/><path fill="none" stroke="#000" d="M241.013,-605.014C250.1,-590.279 258.281,-572.79 264.444,-558.262"/><polygon fill="#000" stroke="#000" points="267.791 -559.327 268.375 -548.748 261.321 -556.654 267.791 -559.327"/></g><g id="node6" class="node"><title>fastai_torch_core</title><ellipse cx="301.013" cy="-756.441" fill="#df0b0b" stroke="#000" rx="43.682" ry="21.429"/><text x="301.013" y="-759.441" fill="#fff" font-family="Helvetica,sans-Serif" font-size="10" text-anchor="middle">fastai.</text><text x="301.013" y="-748.441" fill="#fff" font-family="Helvetica,sans-Serif" font-size="10" text-anchor="middle">torch_core</text></g><g id="edge37" class="edge"><title>fastai_imports_torch-&gt;fastai_torch_core</title><path fill="none" stroke="#000" d="M311.546,-911.656C303.514,-900.253 295.131,-885.993 291.013,-871.637 283.067,-843.932 287.311,-811.028 292.497,-787.673"/><polygon fill="#000" stroke="#000" points="295.968 -788.208 294.905 -777.667 289.162 -786.57 295.968 -788.208"/></g><g id="edge8" class="edge"><title>fastai_imports_torch-&gt;fastai_callback</title><path fill="none" stroke="#000" d="M363.329,-921.914C385.045,-911.168 412.748,-894.245 430.013,-871.637 485.16,-799.421 504.638,-690.069 511.075,-637.433"/><polygon fill="#000" stroke="#000" points="514.565 -637.726 512.228 -627.392 507.61 -636.928 514.565 -637.726"/></g><g id="edge22" class="edge"><title>fastai_imports_torch-&gt;fastai_everything</title><path fill="none" stroke="#000" d="M51.0131,-215.418C63.9005,-158.762 143.957,-205.58 165.013,-151.426"/><path fill="none" stroke="#000" d="M165.013,-150.426C204.814,-48.0628 351.988,-26.5722 432.144,-22.6092"/><polygon fill="#000" stroke="#000" points="432.675 -26.09 442.52 -22.176 432.382 -19.096 432.675 -26.09"/><path fill="none" stroke="#000" d="M117.013,-841.645C73.6011,-798.984 20.293,-817.252 9.01307,-757.441"/><path fill="none" stroke="#000" d="M9.01307,-755.441C-30.5024,-545.913 80.1051,-495.445 89.0131,-282.409"/><path fill="none" stroke="#000" d="M295.458,-928.727C248.957,-918.018 167.489,-893.248 117.013,-843.645"/><path fill="none" stroke="#000" d="M89.0131,-281.409C90.1451,-248.351 43.6765,-249.671 51.0131,-217.418"/></g><g id="node12" class="node"><title>fastai_metrics</title><ellipse cx="81.013" cy="-756.441" fill="#b03a3a" stroke="#000" rx="44.3" ry="18"/><text x="81.013" y="-753.941" fill="#fff" font-family="Helvetica,sans-Serif" font-size="10" text-anchor="middle">fastai.metrics</text></g><g id="edge34" class="edge"><title>fastai_imports_torch-&gt;fastai_metrics</title><path fill="none" stroke="#000" d="M117.013,-841.645C101.577,-825.925 92.3036,-802.551 87.0443,-784.415"/><polygon fill="#000" stroke="#000" points="90.413 -783.464 84.458 -774.701 83.649 -785.265 90.413 -783.464"/></g><g id="edge39" class="edge"><title>fastai_imports_torch-&gt;fastai_train</title><path fill="none" stroke="#000" d="M241.013,-150.426C304.976,-118.296 387.94,-105.564 438.781,-100.574"/><polygon fill="#000" stroke="#000" points="439.179 -104.053 448.815 -99.649 438.536 -97.082 439.179 -104.053"/><path fill="none" stroke="#000" d="M89.0131,-281.409C81.2062,-192.864 161.583,-191.326 241.013,-151.426"/></g><g id="edge46" class="edge"><title>fastai_imports_torch-&gt;fastai_callbacks_fp16</title><path fill="none" stroke="#000" d="M117.013,-841.645C113.594,-838.164 218.735,-509.989 222.013,-506.375 270.985,-452.388 368.17,-515.111 373.013,-442.383"/><path fill="none" stroke="#000" d="M373.013,-440.383C373.938,-422.853 374.254,-403.418 374.312,-386.947"/><polygon fill="#000" stroke="#000" points="377.812 -386.602 374.317 -376.6 370.812 -386.598 377.812 -386.602"/></g><g id="node4" class="node"><title>fastai_imports_core</title><ellipse cx="487.013" cy="-936.628" fill="#f91010" stroke="#000" rx="36.541" ry="28.983"/><text x="487.013" y="-945.128" fill="#fff" font-family="Helvetica,sans-Serif" font-size="10" text-anchor="middle">fastai.</text><text x="487.013" y="-934.128" fill="#fff" font-family="Helvetica,sans-Serif" font-size="10" text-anchor="middle">imports.</text><text x="487.013" y="-923.128" fill="#fff" font-family="Helvetica,sans-Serif" font-size="10" text-anchor="middle">core</text></g><g id="edge17" class="edge"><title>fastai_imports_core-&gt;fastai_data</title><path fill="none" stroke="#000" d="M563.013,-755.441C564.893,-733.525 581.437,-714.953 597.231,-701.998"/><polygon fill="#000" stroke="#000" points="599.557 -704.625 605.341 -695.748 595.284 -699.08 599.557 -704.625"/></g><g id="edge3" class="edge"><title>fastai_imports_core-&gt;fastai_basic_train</title><path fill="none" stroke="#000" d="M451.799,-928.275C416.522,-919.518 362.129,-902.1 324.013,-871.637 312.268,-862.249 314.023,-855.683 305.013,-843.645"/><path fill="none" stroke="#000" d="M305.013,-841.645C275.602,-802.353 237.519,-821.27 215.013,-777.654 195.357,-739.56 220.378,-724.215 229.013,-682.227"/><path fill="none" stroke="#000" d="M229.013,-680.227C233.463,-647.556 223.706,-635.08 241.013,-607.014"/></g><g id="edge36" class="edge"><title>fastai_imports_core-&gt;fastai_torch_core</title><path fill="none" stroke="#000" d="M305.013,-841.645C293.683,-826.509 292.77,-805.206 294.645,-787.814"/><polygon fill="#000" stroke="#000" points="298.157 -787.976 296.104 -777.582 291.227 -786.987 298.157 -787.976"/></g><g id="edge10" class="edge"><title>fastai_imports_core-&gt;fastai_callback</title><path fill="none" stroke="#000" d="M563.013,-841.645C584.364,-810.909 559.814,-794.728 563.013,-757.441"/><path fill="none" stroke="#000" d="M563.013,-755.441C566.738,-712.015 546.501,-664.653 530.903,-635.389"/><polygon fill="#000" stroke="#000" points="533.926 -633.624 526.038 -626.552 527.794 -637 533.926 -633.624"/><path fill="none" stroke="#000" d="M507.822,-912.659C523.771,-894.548 545.877,-868.314 563.013,-843.645"/></g><g id="node8" class="node"><title>fastai_core</title><ellipse cx="665.013" cy="-756.441" fill="#dd1818" stroke="#000" rx="36.494" ry="18"/><text x="665.013" y="-753.941" fill="#fff" font-family="Helvetica,sans-Serif" font-size="10" text-anchor="middle">fastai.core</text></g><g id="edge13" class="edge"><title>fastai_imports_core-&gt;fastai_core</title><path fill="none" stroke="#000" d="M563.013,-841.645C581.749,-814.673 611.384,-791.558 633.894,-776.407"/><polygon fill="#000" stroke="#000" points="635.996 -779.215 642.44 -770.805 632.158 -773.361 635.996 -779.215"/></g><g id="edge28" class="edge"><title>fastai_imports_core-&gt;fastai_everything</title><path fill="none" stroke="#000" d="M843.013,-440.383C838.685,-399.732 840.526,-389.206 843.013,-348.401"/></g><g id="edge33" class="edge"><title>fastai_imports_core-&gt;fastai_metrics</title><path fill="none" stroke="#000" d="M452.322,-926.38C412.594,-915.315 345.913,-895.29 291.013,-871.637 225.461,-843.393 153.202,-801.555 112.836,-777.138"/><polygon fill="#000" stroke="#000" points="114.604 -774.116 104.242 -771.91 110.967 -780.097 114.604 -774.116"/></g><g id="edge40" class="edge"><title>fastai_imports_core-&gt;fastai_train</title><path fill="none" stroke="#000" d="M843.013,-755.441C851.663,-616.573 856.867,-580.828 843.013,-442.383"/><path fill="none" stroke="#000" d="M843.013,-440.383C833.331,-368.822 805.013,-354.623 805.013,-282.409 805.013,-282.409 805.013,-282.409 805.013,-215.418 805.013,-208.005 609.078,-139.947 523.844,-110.692"/><polygon fill="#000" stroke="#000" points="524.854 -107.338 514.259 -107.406 522.583 -113.96 524.854 -107.338"/></g><g id="edge49" class="edge"><title>fastai_imports_core-&gt;fastai_callbacks_fp16</title><path fill="none" stroke="#000" d="M305.013,-841.645C296.487,-829.26 314.967,-825.664 324.013,-813.654 336.543,-797.018 346.183,-796.953 354.013,-777.654 395.752,-674.781 348.18,-636.792 373.013,-528.588"/></g><g id="edge54" class="edge"><title>fastai_imports_core-&gt;fastai_callbacks_lr_finder</title><path fill="none" stroke="#000" d="M843.013,-755.441C820.406,-660.56 768.832,-658.562 705.013,-584.801 682.745,-559.064 662.68,-561.22 653.013,-528.588"/><path fill="none" stroke="#000" d="M523.722,-934.11C618.015,-928.175 860.182,-899.127 843.013,-757.441"/></g><g id="edge57" class="edge"><title>fastai_imports_core-&gt;fastai_callbacks_one_cycle</title><path fill="none" stroke="#000" d="M483.679,-907.643C475.35,-839.011 452.324,-656.958 425.013,-506.375 419.818,-477.729 397.335,-468.083 411.013,-442.383"/></g><g id="node5" class="node"><title>fastai_imports</title><ellipse cx="377.013" cy="-842.645" fill="#f91010" stroke="#000" rx="44.3" ry="18"/><text x="377.013" y="-840.145" fill="#fff" font-family="Helvetica,sans-Serif" font-size="10" text-anchor="middle">fastai.imports</text></g><g id="edge18" class="edge"><title>fastai_imports-&gt;fastai_data</title><path fill="none" stroke="#000" d="M407.438,-829.363C439.358,-815.402 489.703,-790.23 525.013,-757.441"/><path fill="none" stroke="#000" d="M525.013,-755.441C547.235,-734.805 575.429,-714.975 596.541,-701.17"/><polygon fill="#000" stroke="#000" points="598.611 -704 605.117 -695.638 594.816 -698.117 598.611 -704"/></g><g id="edge4" class="edge"><title>fastai_imports-&gt;fastai_basic_train</title><path fill="none" stroke="#000" d="M229.013,-755.441C203.596,-735.123 222.458,-714.1 229.013,-682.227"/></g><g id="edge38" class="edge"><title>fastai_imports-&gt;fastai_torch_core</title><path fill="none" stroke="#000" d="M362.36,-825.41C351.759,-813.664 337.2,-797.534 324.926,-783.935"/><polygon fill="#000" stroke="#000" points="327.308 -781.351 318.01 -776.272 322.112 -786.041 327.308 -781.351"/></g><g id="edge11" class="edge"><title>fastai_imports-&gt;fastai_callback</title><path fill="none" stroke="#000" d="M411.013,-680.227C419.815,-651.794 448.215,-632.936 472.969,-621.489"/><polygon fill="#000" stroke="#000" points="474.456 -624.659 482.23 -617.46 471.664 -618.24 474.456 -624.659"/></g><g id="edge14" class="edge"><title>fastai_imports-&gt;fastai_core</title><path fill="none" stroke="#000" d="M411.753,-831.488C465.384,-815.808 568.066,-785.786 624.822,-769.192"/><polygon fill="#000" stroke="#000" points="625.912 -772.519 634.528 -766.354 623.948 -765.801 625.912 -772.519"/></g><g id="edge29" class="edge"><title>fastai_imports-&gt;fastai_everything</title><path fill="none" stroke="#000" d="M843.013,-281.409C850.404,-253.946 837.04,-245.224 843.013,-217.418"/><path fill="none" stroke="#000" d="M417.295,-835.107C503.611,-820.934 699.465,-787.838 710.013,-777.654 791.709,-698.779 767.013,-642.146 767.013,-528.588 767.013,-528.588 767.013,-528.588 767.013,-440.383 767.013,-362.47 822.766,-357.646 843.013,-282.409"/></g><g id="edge35" class="edge"><title>fastai_imports-&gt;fastai_metrics</title><path fill="none" stroke="#000" d="M351.543,-827.87C341.599,-822.889 329.972,-817.54 319.013,-813.654 255.879,-791.265 180.162,-775.121 131.354,-766.029"/><polygon fill="#000" stroke="#000" points="131.829 -762.557 121.362 -764.196 130.566 -769.442 131.829 -762.557"/></g><g id="edge41" class="edge"><title>fastai_imports-&gt;fastai_train</title><path fill="none" stroke="#000" d="M349.628,-828.367C313.101,-810.611 252.48,-780.969 248.013,-777.654 238.112,-770.307 238.644,-765.139 229.013,-757.441"/><path fill="none" stroke="#000" d="M241.013,-215.418C241.013,-186.977 215.599,-164.193 241.013,-151.426"/><path fill="none" stroke="#000" d="M229.013,-755.441C142.113,-685.976 158.435,-607.862 204.013,-506.375 221.553,-467.32 277.904,-485.154 276.013,-442.383"/><path fill="none" stroke="#000" d="M276.013,-440.383C271.818,-403.407 234.79,-411.344 222.013,-376.392 213.165,-352.188 220.284,-344.121 222.013,-318.409 223.127,-301.853 224.126,-297.75 227.013,-281.409 232.078,-252.74 241.013,-246.531 241.013,-217.418"/></g><g id="edge50" class="edge"><title>fastai_imports-&gt;fastai_callbacks_fp16</title><path fill="none" stroke="#000" d="M411.013,-680.227C430.943,-615.846 418.309,-595.587 411.013,-528.588"/><path fill="none" stroke="#000" d="M411.013,-755.441C425.384,-726.247 400.711,-713.093 411.013,-682.227"/><path fill="none" stroke="#000" d="M383.071,-824.55C389.377,-807.307 399.873,-780.072 411.013,-757.441"/><path fill="none" stroke="#000" d="M411.013,-526.588C403.991,-486.134 370.285,-483.351 373.013,-442.383"/></g><g id="edge55" class="edge"><title>fastai_imports-&gt;fastai_callbacks_lr_finder</title><path fill="none" stroke="#000" d="M411.013,-755.441C451.602,-693.911 672.973,-599.545 653.013,-528.588"/><path fill="none" stroke="#000" d="M653.013,-526.588C648.257,-510.533 641.737,-493.243 635.748,-478.532"/><polygon fill="#000" stroke="#000" points="638.974 -477.174 631.913 -469.276 632.507 -479.854 638.974 -477.174"/></g><g id="edge59" class="edge"><title>fastai_imports-&gt;fastai_callbacks_one_cycle</title><path fill="none" stroke="#000" d="M411.013,-526.588C404.612,-489.715 393.431,-475.42 411.013,-442.383"/></g><g id="edge20" class="edge"><title>fastai_torch_core-&gt;fastai_data</title><path fill="none" stroke="#000" d="M340.012,-746.682C401.488,-732.876 520.473,-706.154 584.224,-691.837"/><polygon fill="#000" stroke="#000" points="585.348 -695.172 594.338 -689.566 583.814 -688.342 585.348 -695.172"/></g><g id="edge5" class="edge"><title>fastai_torch_core-&gt;fastai_basic_train</title><path fill="none" stroke="#000" d="M297.013,-605.014C299.689,-589.296 295.64,-572.149 290.406,-558.086"/><polygon fill="#000" stroke="#000" points="293.492 -556.386 286.464 -548.457 287.013 -559.037 293.492 -556.386"/><path fill="none" stroke="#000" d="M294.827,-735.432C291.251,-720.088 288.889,-698.801 297.013,-682.227"/><path fill="none" stroke="#000" d="M297.013,-680.227C311.335,-651.01 291.552,-639.092 297.013,-607.014"/></g><g id="edge12" class="edge"><title>fastai_torch_core-&gt;fastai_callback</title><path fill="none" stroke="#000" d="M297.013,-680.227C312.408,-648.821 409.135,-626.003 468.131,-614.803"/><polygon fill="#000" stroke="#000" points="469.131 -618.177 478.324 -612.911 467.854 -611.295 469.131 -618.177"/></g><g id="edge31" class="edge"><title>fastai_torch_core-&gt;fastai_everything</title><path fill="none" stroke="#000" d="M273.18,-739.964C220.994,-709.936 114.742,-643.522 127.013,-607.014"/></g><g id="edge51" class="edge"><title>fastai_torch_core-&gt;fastai_callbacks_fp16</title><path fill="none" stroke="#000" d="M373.013,-526.588C381.384,-490.112 370.526,-479.725 373.013,-442.383"/><path fill="none" stroke="#000" d="M297.013,-605.014C305.053,-557.791 362.298,-575.277 373.013,-528.588"/></g><g id="edge6" class="edge"><title>fastai_callback-&gt;fastai_basic_train</title><path fill="none" stroke="#000" d="M481.915,-594.707C440.811,-581.508 369.29,-558.541 322.3,-543.451"/><polygon fill="#000" stroke="#000" points="323.256 -540.083 312.665 -540.357 321.116 -546.747 323.256 -540.083"/></g><g id="edge25" class="edge"><title>fastai_callback-&gt;fastai_everything</title><path fill="none" stroke="#000" d="M549.013,-440.383C536.403,-371.314 549.013,-352.62 549.013,-282.409 549.013,-282.409 549.013,-282.409 549.013,-215.418 549.013,-162.977 588.539,-131.889 549.013,-97.4264"/></g><g id="edge48" class="edge"><title>fastai_callback-&gt;fastai_callbacks_fp16</title><path fill="none" stroke="#000" d="M549.013,-526.588C550.49,-439.887 367.251,-528.906 373.013,-442.383"/><path fill="none" stroke="#000" d="M528.043,-585.994C537.626,-571.155 548.655,-549.6 549.013,-528.588"/></g><g id="edge56" class="edge"><title>fastai_callback-&gt;fastai_callbacks_lr_finder</title><path fill="none" stroke="#000" d="M549.013,-526.588C549.405,-503.585 565.111,-483.605 581.649,-468.887"/><polygon fill="#000" stroke="#000" points="584.346 -471.195 589.772 -462.095 579.855 -465.825 584.346 -471.195"/></g><g id="edge60" class="edge"><title>fastai_callback-&gt;fastai_callbacks_one_cycle</title><path fill="none" stroke="#000" d="M549.013,-526.588C549.651,-489.169 555.734,-479.199 549.013,-442.383"/><path fill="none" stroke="#000" d="M549.013,-440.383C544.583,-416.118 528.187,-394.048 512.267,-377.612"/><polygon fill="#000" stroke="#000" points="514.606 -375.004 505.031 -370.47 509.689 -379.985 514.606 -375.004"/></g><g id="edge15" class="edge"><title>fastai_core-&gt;fastai_data</title><path fill="none" stroke="#000" d="M656.39,-738.827C651.629,-729.654 645.613,-718.064 640.268,-707.764"/><polygon fill="#000" stroke="#000" points="643.315 -706.038 635.602 -698.775 637.102 -709.263 643.315 -706.038"/></g><g id="edge9" class="edge"><title>fastai_core-&gt;fastai_callback</title><path fill="none" stroke="#000" d="M691.013,-680.227C683.591,-653.068 608.545,-629.805 558.583,-617.168"/><polygon fill="#000" stroke="#000" points="559.193 -613.713 548.645 -614.709 557.512 -620.508 559.193 -613.713"/><path fill="none" stroke="#000" d="M676.715,-739.377C685.968,-724.689 696.489,-702.265 691.013,-682.227"/></g><g id="edge27" class="edge"><title>fastai_core-&gt;fastai_everything</title><path fill="none" stroke="#000" d="M843.013,-215.418C851.791,-188.366 857.098,-176.134 843.013,-151.426"/><path fill="none" stroke="#000" d="M691.013,-605.014C691.013,-474.688 693.935,-434.576 753.013,-318.409 780.267,-264.819 824.458,-274.605 843.013,-217.418"/></g><g id="edge53" class="edge"><title>fastai_core-&gt;fastai_callbacks_lr_finder</title><path fill="none" stroke="#000" d="M691.013,-605.014C691.013,-567.08 663.285,-565.105 653.013,-528.588"/><path fill="none" stroke="#000" d="M691.013,-680.227C682.435,-648.839 691.013,-639.553 691.013,-607.014"/></g><g id="node9" class="node"><title>fastai_imports_vision</title><ellipse cx="703.013" cy="-842.645" fill="#ce3b3b" stroke="#000" rx="36.541" ry="28.983"/><text x="703.013" y="-851.145" fill="#fff" font-family="Helvetica,sans-Serif" font-size="10" text-anchor="middle">fastai.</text><text x="703.013" y="-840.145" fill="#fff" font-family="Helvetica,sans-Serif" font-size="10" text-anchor="middle">imports.</text><text x="703.013" y="-829.145" fill="#fff" font-family="Helvetica,sans-Serif" font-size="10" text-anchor="middle">vision</text></g><g id="edge19" class="edge"><title>fastai_imports_vision-&gt;fastai_data</title><path fill="none" stroke="#000" d="M671.759,-826.805C653.008,-816.041 630.772,-799.533 620.013,-777.654 609.464,-756.201 612.988,-728.711 618.096,-708.751"/><polygon fill="#000" stroke="#000" points="621.48 -709.647 620.845 -699.071 614.746 -707.734 621.48 -709.647"/></g><g id="edge32" class="edge"><title>fastai_imports_vision-&gt;fastai_everything</title><path fill="none" stroke="#000" d="M727.445,-820.894C757.62,-792.805 805.013,-739.563 805.013,-682.227 805.013,-682.227 805.013,-682.227 805.013,-526.588 805.013,-474.725 818.137,-463.101 829.013,-412.392 835.118,-383.926 840.114,-377.369 843.013,-348.401"/><path fill="none" stroke="#000" d="M843.013,-346.401C844.743,-318.013 839.21,-310.594 843.013,-282.409"/></g><g id="node11" class="node"><title>fastai_imports_callbacks</title><ellipse cx="310.013" cy="-216.418" fill="#b42d2d" stroke="#000" rx="41.024" ry="28.983"/><text x="310.013" y="-224.918" fill="#fff" font-family="Helvetica,sans-Serif" font-size="10" text-anchor="middle">fastai.</text><text x="310.013" y="-213.918" fill="#fff" font-family="Helvetica,sans-Serif" font-size="10" text-anchor="middle">imports.</text><text x="310.013" y="-202.918" fill="#fff" font-family="Helvetica,sans-Serif" font-size="10" text-anchor="middle">callbacks</text></g><g id="edge23" class="edge"><title>fastai_imports_callbacks-&gt;fastai_everything</title><path fill="none" stroke="#000" d="M549.013,-95.4264C533.164,-81.6073 517.587,-63.9041 505.769,-49.3677"/><polygon fill="#000" stroke="#000" points="508.246 -46.86 499.272 -41.228 502.775 -51.227 508.246 -46.86"/><path fill="none" stroke="#000" d="M511.013,-150.426C529.3,-127.939 570.86,-116.474 549.013,-97.4264"/></g><g id="edge44" class="edge"><title>fastai_imports_callbacks-&gt;fastai_train</title><path fill="none" stroke="#000" d="M351.177,-214.853C397.763,-211.802 472.196,-199.16 511.013,-151.426"/><path fill="none" stroke="#000" d="M511.013,-150.426C518.115,-141.693 514.338,-130.699 507.709,-120.99"/><polygon fill="#000" stroke="#000" points="510.275 -118.59 501.351 -112.879 504.765 -122.908 510.275 -118.59"/></g><g id="edge26" class="edge"><title>fastai_metrics-&gt;fastai_everything</title><path fill="none" stroke="#000" d="M87.7271,-738.403C98.1406,-711.142 117.931,-655.815 127.013,-607.014"/><path fill="none" stroke="#000" d="M127.013,-605.014C118.318,-533.259 127.013,-514.664 127.013,-442.383 127.013,-442.383 127.013,-442.383 127.013,-346.401 127.013,-315.609 118.261,-308.16 103.013,-281.409 84.8656,-249.571 44.9366,-253.557 51.0131,-217.418"/></g><g id="edge30" class="edge"><title>fastai_train-&gt;fastai_everything</title><path fill="none" stroke="#000" d="M485.013,-78.0759C485.013,-70.5002 485.013,-61.3864 485.013,-52.7384"/><polygon fill="#000" stroke="#000" points="488.513 -52.556 485.013 -42.556 481.513 -52.556 488.513 -52.556"/></g><g id="node14" class="node"><title>fastai_callbacks</title><ellipse cx="272.013" cy="-347.401" fill="#ce3b3b" stroke="#000" rx="41.024" ry="21.429"/><text x="272.013" y="-350.401" fill="#fff" font-family="Helvetica,sans-Serif" font-size="10" text-anchor="middle">fastai.</text><text x="272.013" y="-339.401" fill="#fff" font-family="Helvetica,sans-Serif" font-size="10" text-anchor="middle">callbacks</text></g><g id="edge64" class="edge"><title>fastai_callbacks-&gt;fastai_imports_callbacks</title><path fill="none" stroke="#000" d="M241.013,-281.409C241.39,-263.795 253.692,-249.666 267.807,-239.211"/><polygon fill="#000" stroke="#000" points="269.941 -241.993 276.25 -233.481 266.01 -236.2 269.941 -241.993"/></g><g id="edge42" class="edge"><title>fastai_callbacks-&gt;fastai_train</title><path fill="none" stroke="#000" d="M241.013,-281.409C241.621,-252.975 241.013,-245.858 241.013,-217.418"/><path fill="none" stroke="#000" d="M256.994,-327.371C248.918,-315.205 240.665,-298.7 241.013,-282.409"/></g><g id="edge61" class="edge"><title>fastai_callbacks_fp16-&gt;fastai_imports_callbacks</title><path fill="none" stroke="#000" d="M279.013,-281.409C273.266,-271.142 276.096,-259.65 281.912,-249.268"/><polygon fill="#000" stroke="#000" points="284.862 -251.152 287.377 -240.86 278.993 -247.337 284.862 -251.152"/></g><g id="edge43" class="edge"><title>fastai_callbacks_fp16-&gt;fastai_train</title><path fill="none" stroke="#000" d="M341.144,-328.556C316.623,-314.5 286.177,-295.206 279.013,-282.409"/><path fill="none" stroke="#000" d="M279.013,-281.409C262.857,-252.546 241.013,-250.495 241.013,-217.418"/></g><g id="edge62" class="edge"><title>fastai_callbacks_lr_finder-&gt;fastai_imports_callbacks</title><path fill="none" stroke="#000" d="M605.756,-413.754C590.176,-386.75 562.988,-345.224 530.013,-318.409 477.807,-275.955 404.846,-247.101 357.514,-231.442"/><polygon fill="#000" stroke="#000" points="358.412 -228.053 347.82 -228.3 356.254 -234.712 358.412 -228.053"/></g><g id="edge63" class="edge"><title>fastai_callbacks_one_cycle-&gt;fastai_imports_callbacks</title><path fill="none" stroke="#000" d="M450.271,-325.102C421.526,-303.032 376.513,-268.474 345.265,-244.482"/><polygon fill="#000" stroke="#000" points="347.302 -241.634 337.239 -238.32 343.039 -247.186 347.302 -241.634"/></g></g></svg>